#!OML:ASF H:\Terrain\Patient Classification 1\PLAYGROUND\JustinFriday\JustinFriday.ASF
:FULLY-SPECIFIED
:DEGREES
2569
root 14.4512 26.6973 38.8946 -189.172 0.456603 -170.604
lowerback 41.1746 -5.43548 2.04637
upperback 1.96911 -7.02437 6.72831
thorax -17.2798 -3.73218 10.2941
lowerneck 0.991195 6.05519 -37.6962
upperneck 12.4376 8.23306 15.4912
head 1.54057 3.48262 10.8791
rclavicle -6.62947e-014 7.15625e-015
rhumerus 104.74 12.6328 -61.0985
rradius 41.9551
rwrist -360.626
rhand -5.08761 -28.9766
rfingers 7.12502
rthumb 20.7092 -57.8917
lclavicle -6.62947e-014 7.15625e-015
lhumerus 67.6338 32.4285 32.5014
lradius 31.8128
lwrist -6.70605
lhand -5.92343 -6.28379
lfingers 7.12502
lthumb 19.906 22.7167
rfemur -34.3219 -13.7819 23.2252
rtibia 104.198
rfoot 13.9743 -5.54724
rtoes -37.8727
lfemur -38.2466 14.4366 10.2187
ltibia 105.244
lfoot -158.459 161.716
ltoes 4.72137
2570
root 14.446 26.7024 38.8842 -189.166 0.238721 -170.578
lowerback 41.0777 -5.60069 2.20263
upperback 1.83223 -7.12285 6.76028
thorax -17.4101 -3.75877 10.3051
lowerneck 1.03887 6.09134 -37.6906
upperneck 12.7678 8.30912 15.3841
head 1.62808 3.5047 10.8485
rclavicle 3.13086e-014 -4.65156e-014
rhumerus 104.018 13.2031 -61.3659
rradius 42.4801
rwrist -359.941
rhand -5.60328 -28.6176
rfingers 7.12502
rthumb 20.2137 -57.5858
lclavicle 3.13086e-014 -4.65156e-014
lhumerus 67.3401 32.2079 33.0382
lradius 32.2985
lwrist -6.31208
lhand -5.07024 -6.05896
lfingers 7.12502
lthumb 20.7259 22.8543
rfemur -34.0186 -13.7708 23.329
rtibia 103.171
rfoot 14.2889 -5.11208
rtoes -38.9474
lfemur -38.1697 13.5879 9.75167
ltibia 103.966
lfoot -157.407 161.678
ltoes -2.30844
2571
root 14.4607 26.7108 38.8749 -189.382 0.896223 -170.656
lowerback 41.5379 -7.26715 -0.0756265
upperback 2.14242 -6.07659 6.75072
thorax -17.1736 -1.55617 10.4998
lowerneck 1.02498 6.13773 -37.9457
upperneck 13.1297 8.39865 15.5511
head 1.70282 3.53038 10.9581
rclavicle -2.20651e-014 -2.78299e-015
rhumerus 103.243 13.8538 -61.7294
rradius 43.0163
rwrist -358.749
rhand -6.06458 -27.973
rfingers 7.12502
rthumb 19.7703 -56.9876
lclavicle -2.20651e-014 -2.78299e-015
lhumerus 67.1029 31.9612 33.6602
lradius 32.7485
lwrist -6.16459
lhand -4.68599 -5.69729
lfingers 7.12502
lthumb 21.0951 23.1752
rfemur -33.4792 -12.7274 23.5713
rtibia 102.083
rfoot 14.603 -5.22106
rtoes -39.2236
lfemur -37.126 13.6173 9.64325
ltibia 102.403
lfoot -156.412 161.448
ltoes -8.64201
2572
root 14.4589 26.7097 38.8679 -189.368 0.784594 -170.774
lowerback 41.5183 -7.27148 -0.112177
upperback 1.96958 -6.11755 6.80425
thorax -17.3682 -1.56483 10.6266
lowerneck 1.11818 6.21165 -38.1764
upperneck 13.4343 8.50049 15.5861
head 1.75319 3.56265 11.0082
rclavicle -5.96354e-016 1.47101e-014
rhumerus 102.485 14.3943 -61.8967
rradius 43.4738
rwrist -358.006
rhand -6.65927 -27.3162
rfingers 7.12502
rthumb 19.1985 -56.3886
lclavicle -5.96354e-016 1.47101e-014
lhumerus 66.6799 31.6031 34.2621
lradius 33.3058
lwrist -6.09501
lhand -5.11032 -5.50115
lfingers 7.12502
lthumb 20.6874 23.4163
rfemur -33.3348 -12.5761 23.5165
rtibia 100.972
rfoot 14.7811 -5.50891
rtoes -38.6729
lfemur -37.0023 12.9772 9.00771
ltibia 100.885
lfoot -155.508 161.315
ltoes -5.67941
2573
root 14.4704 26.723 38.8591 -189.347 0.87231 -170.911
lowerback 41.5454 -7.09082 -0.411843
upperback 1.79589 -6.03755 6.92004
thorax -17.5766 -1.50169 10.9144
lowerneck 1.28028 6.31241 -38.2834
upperneck 13.7028 8.63209 15.4406
head 1.79366 3.61173 10.9677
rclavicle -1.03666e-013 3.65764e-014
rhumerus 101.649 14.8298 -61.8737
rradius 44.0158
rwrist -357.669
rhand -7.50187 -26.2909
rfingers 7.12502
rthumb 18.3881 -55.4418
lclavicle -1.03666e-013 3.65764e-014
lhumerus 66.3299 31.2887 35.1287
lradius 33.9933
lwrist -5.98226
lhand -4.90036 -5.41977
lfingers 7.12502
lthumb 20.8891 23.4756
rfemur -33.2226 -12.1667 23.682
rtibia 99.5707
rfoot 15.4059 -5.56225
rtoes -38.6814
lfemur -36.6196 12.5015 8.50129
ltibia 99.139
lfoot -154.423 161.236
ltoes 1.87365
2574
root 14.4835 26.719 38.8515 -189.457 1.16323 -170.913
lowerback 41.7202 -6.84154 -0.715484
upperback 1.66846 -5.83635 7.07769
thorax -17.8015 -1.37559 11.2001
lowerneck 1.4454 6.43159 -38.4123
upperneck 14.0321 8.78689 15.3591
head 1.84113 3.67061 10.9549
rclavicle -8.82604e-014 4.05521e-014
rhumerus 100.705 15.3212 -61.9898
rradius 44.7196
rwrist -357.083
rhand -8.27791 -24.9251
rfingers 7.12502
rthumb 17.6414 -54.1448
lclavicle -8.82604e-014 4.05521e-014
lhumerus 66.2447 31.0624 36.4285
lradius 34.7135
lwrist -6.15499
lhand -3.94728 -5.16071
lfingers 7.12502
lthumb 21.8046 23.631
rfemur -32.5516 -11.442 23.9813
rtibia 97.9753
rfoot 16.2689 -4.60791
rtoes -40.3712
lfemur -35.9574 12.1298 8.27807
ltibia 97.3342
lfoot -153.069 161.234
ltoes -0.475985
2575
root 14.4674 26.7122 38.8402 -189.505 0.360228 -170.668
lowerback 41.4989 -5.40317 1.69824
upperback 1.11701 -6.84901 7.23577
thorax -18.4239 -3.45418 11.1522
lowerneck 1.44258 6.48156 -38.5286
upperneck 14.528 8.92216 15.319
head 1.96815 3.71342 10.9743
rclavicle -4.45278e-014 -5.56597e-015
rhumerus 99.8209 15.9172 -62.4023
rradius 45.7931
rwrist -357.465
rhand -7.73391 -25.1042
rfingers 7.12502
rthumb 18.1649 -54.276
lclavicle -4.45278e-014 -5.56597e-015
lhumerus 66.1818 30.8709 37.8753
lradius 35.6718
lwrist -6.17359
lhand -2.50329 -4.75869
lfingers 7.12502
lthumb 23.1906 23.8652
rfemur -32.1735 -11.9769 24.1906
rtibia 96.2405
rfoot 17.1185 -3.52254
rtoes -41.3529
lfemur -36.0571 10.667 7.77291
ltibia 95.5139
lfoot -151.673 161.369
ltoes -1.68379
2576
root 14.4697 26.7099 38.8284 -189.548 0.38868 -170.631
lowerback 41.5247 -5.39425 1.6862
upperback 0.993634 -6.80219 7.30849
thorax -18.5906 -3.40729 11.2444
lowerneck 1.43149 6.49896 -38.5485
upperneck 14.9612 9.0142 15.2409
head 2.09281 3.73913 10.9676
rclavicle 1.23843e-013 -7.15625e-015
rhumerus 98.9741 16.4008 -62.6594
rradius 46.54
rwrist -357.099
rhand -8.06458 -25.0412
rfingers 7.12502
rthumb 17.8467 -54.2423
lclavicle 1.23843e-013 -7.15625e-015
lhumerus 65.8709 30.6558 38.8985
lradius 36.9089
lwrist -5.50284
lhand -0.710909 -4.04266
lfingers 7.12502
lthumb 24.9093 24.3542
rfemur -31.8076 -11.5623 24.4669
rtibia 94.4188
rfoot 17.9499 -3.26153
rtoes -41.4058
lfemur -35.6045 10.1164 7.44198
ltibia 93.5109
lfoot -150.521 161.29
ltoes -1.23424
2577
root 14.4734 26.7131 38.8155 -189.601 0.499837 -170.62
lowerback 41.6262 -5.33186 1.60732
upperback 0.863156 -6.71342 7.35958
thorax -18.7986 -3.33329 11.3352
lowerneck 1.49749 6.53657 -38.5351
upperneck 15.2897 9.09657 15.1514
head 2.17704 3.76563 10.9437
rclavicle 5.88403e-014 -4.37326e-014
rhumerus 98.0657 16.8847 -62.9842
rradius 47.3085
rwrist -356.652
rhand -8.3615 -24.9805
rfingers 7.12502
rthumb 17.561 -54.2074
lclavicle 5.88403e-014 -4.37326e-014
lhumerus 65.4711 30.4105 39.7366
lradius 37.9123
lwrist -5.43464
lhand -0.201538 -3.60844
lfingers 7.12502
lthumb 25.3973 24.7199
rfemur -31.3778 -11.1932 24.7111
rtibia 92.5044
rfoot 18.8182 -3.13464
rtoes -41.2553
lfemur -35.1255 9.64015 7.07935
ltibia 91.3578
lfoot -148.809 162.464
ltoes 1.25288
2578
root 14.4819 26.7175 38.7973 -189.77 0.727215 -170.74
lowerback 41.8209 -5.14618 1.30215
upperback 0.788111 -6.58576 7.38786
thorax -18.9637 -3.23258 11.5015
lowerneck 1.34052 6.50378 -38.4142
upperneck 15.8667 9.20116 14.9993
head 2.37647 3.79434 10.9066
rclavicle -1.58034e-014 -4.85035e-014
rhumerus 97.1679 17.4805 -63.5071
rradius 47.9307
rwrist -355.917
rhand -8.62662 -24.7002
rfingers 7.12502
rthumb 17.3058 -53.9497
lclavicle -1.58034e-014 -4.85035e-014
lhumerus 65.2936 30.2007 40.9296
lradius 38.5541
lwrist -6.35277
lhand -0.872571 -4.02532
lfingers 7.12502
lthumb 24.7543 24.3929
rfemur -30.7125 -10.6056 24.8115
rtibia 90.4923
rfoot 19.6227 -3.21957
rtoes -40.8351
lfemur -34.2326 9.22312 6.64521
ltibia 89
lfoot -147.497 163.452
ltoes 2.19521
2579
root 14.4843 26.7198 38.7729 -189.788 0.859917 -171.001
lowerback 41.9219 -6.88502 -0.716381
upperback 1.02214 -5.90795 7.30038
thorax -18.6665 -1.34728 11.621
lowerneck 1.31989 6.49446 -38.1596
upperneck 16.2643 9.28891 14.6973
head 2.52049 3.82369 10.782
rclavicle 8.38871e-014 -8.90555e-014
rhumerus 96.2571 18.0575 -64.062
rradius 48.5966
rwrist -355.112
rhand -9.00189 -24.3276
rfingers 7.12502
rthumb 16.9446 -53.6085
lclavicle 8.38871e-014 -8.90555e-014
lhumerus 65.0433 29.9581 42.0404
lradius 39.1964
lwrist -7.13724
lhand -1.74123 -4.58488
lfingers 7.12502
lthumb 23.9216 23.9451
rfemur -30.1697 -10.0358 24.7136
rtibia 88.3635
rfoot 20.3162 -3.67859
rtoes -39.8611
lfemur -33.4673 8.78805 5.96385
ltibia 86.5728
lfoot -146.61 164.39
ltoes 1.90494
2580
root 14.4764 26.7165 38.7466 -189.601 0.605889 -171.136
lowerback 41.4194 -5.17845 0.996677
upperback 0.521529 -6.67409 7.34109
thorax -19.1265 -3.17928 11.6462
lowerneck 1.60573 6.55959 -38.0432
upperneck 16.321 9.31949 14.4832
head 2.51348 3.8374 10.6778
rclavicle -6.89783e-014 8.34896e-014
rhumerus 95.3618 18.5309 -64.467
rradius 49.2749
rwrist -354.416
rhand -9.30087 -23.8651
rfingers 7.12502
rthumb 16.6568 -53.1704
lclavicle -6.89783e-014 8.34896e-014
lhumerus 64.5852 29.6895 42.8814
lradius 39.8593
lwrist -7.83924
lhand -2.43446 -4.89275
lfingers 7.12502
lthumb 23.2566 23.7228
rfemur -29.8498 -9.97469 24.6873
rtibia 86.1382
rfoot 20.93 -4.80487
rtoes -37.9212
lfemur -33.2574 8.04993 5.23349
ltibia 84.1835
lfoot -146.026 165.002
ltoes 2.08986
